<svg xmlns="http://www.w3.org/2000/svg" viewBox="0 0 800 800"><path d="M392.308,391.942l-30.646-12.069c9.509-27.748,38.451-61.207,83.879-70.047a113.442,113.442,0,0,1,104.376,188.73c-34.95,37.379-86.268,43.832-124.575,28.072,4.02-10.22,8.042-20.445,12.109-30.782,26.441,9.415,51.528,6.984,74.848-8.729,16.761-11.294,27.454-27.136,32.345-46.68,9.781-39.08-11.665-79.744-48.947-93.965A80.467,80.467,0,0,0,392.308,391.942Z" fill="#fff"/><path d="M363.112,469.124v18.86H246.92v-18.86c.8,0,1.628.031,2.457,0,6.574-.291,13.206-.147,19.706-1.005,8.594-1.134,13.553-6.928,15.257-15.056a83.565,83.565,0,0,0,1.547-16.842c.12-43.573.066-87.147.066-130.72v-2.243H247.042V284.466c3.756-.494,7.436-.962,11.111-1.463a109.841,109.841,0,0,0,34.26-10.769c3.987-1.985,7.9-4.113,11.857-6.163a4.072,4.072,0,0,1,1.628-.661c5.383-.049,10.766-.03,16.36-.03v42.254c.808-.879,1.233-1.314,1.627-1.775,14.628-17.117,32.372-29.728,53.763-36.987,11.337-3.847,22.9-4.875,34.519-1.465,9.173,2.692,16.454,7.95,19.892,17.24,5.988,16.177-7.811,28.338-19.469,28.419a22.844,22.844,0,0,1-13.016-3.66c-3.57-2.311-7.232-4.488-10.925-6.6-9.434-5.4-18.935-4.793-28.416-.1-10.378,5.134-19.138,12.5-27.6,20.243-2.743,2.511-5.229,5.312-7.727,8.076a4,4,0,0,0-.944,2.461q-.069,53.268.007,106.536a65.685,65.685,0,0,0,1.069,12.7c1.8,8.964,9,15.039,18.284,15.7,5.77.412,11.564.482,17.348.7C361.455,469.149,362.238,469.124,363.112,469.124Z" fill="#fff"/><path d="M498.2,386.113l12.975-14.528c15.843,12.706,26.168,37.214,21.346,62.286A66.815,66.815,0,0,1,405.4,447.3c-10.916-25.806-3.858-53.955,11.895-70.5l14.633,13.055c-9.955,11.846-13.963,25.328-11.007,40.536a45.506,45.506,0,0,0,18.194,28.627c19.028,14.117,46.506,11.361,62.138-5.7A47.39,47.39,0,0,0,498.2,386.113Z" fill="#fff"/><path d="M465.931,455.112V441.776c6.975-.029,12.59-2.476,16.882-7.654a19.506,19.506,0,0,0,4.594-13.093,20.625,20.625,0,0,0-18.268-20.181c-8.839-.95-21.211,4.5-22.87,19.31H433.4c-2.386-14.489,13.612-31.224,31-32.762,19.336-1.711,36.086,13.771,36.435,33.676C501.164,440.01,484.6,456.174,465.931,455.112Z" fill="#fff"/><path d="M158.41,515.9h2.664q15.891,0,31.782,0c3.743,0,4.547.817,4.552,4.58,0,2.8.021,5.6-.006,8.395-.026,2.71-1.075,3.795-3.724,3.8-12.26.015-24.52.069-36.779-.013-9.452-.063-16.886-7.941-17.027-18.062-.119-8.594-.042-17.191-.016-25.786.009-3.045,1.083-4.083,4.092-4.095q5.3-.021,10.594,0c2.761.015,3.851,1.091,3.859,3.9.023,8.195.008,16.391.009,24.586Z" fill="#fff"/><path d="M641.6,283.427h-2.665q-16.091,0-32.181,0c-3.262,0-4.142-.881-4.151-4.133-.009-3-.033-6,.009-8.995.035-2.4,1.159-3.624,3.538-3.631,12.26-.037,24.525-.241,36.777.056,10.042.244,17.087,7.882,17.215,18.083.1,7.928.037,15.857.012,23.786-.01,3.114-1.135,4.193-4.236,4.2q-5.1.014-10.194,0c-2.989-.008-4.113-1.1-4.119-4.083q-.024-11.394,0-22.787Z" fill="#fff"/><path d="M476.032,416.983l-2.909,1.413c-3.444-3.8-6.576-4.651-9.687-2.688a6.568,6.568,0,0,0-2.645,7.849c1.309,3.4,4.389,4.715,9.063,3.79l1.346,2.76c-4.071,2.682-10.189.895-12.957-3.7a10.1,10.1,0,0,1,3.727-13.982C467.048,409.6,473.145,411.483,476.032,416.983Z" fill="#fff"/><path d="M470.27,421.2a3.313,3.313,0,0,1-3.247,3.326,3.214,3.214,0,0,1-3.4-3.33,3.181,3.181,0,0,1,3.3-3.213A3.274,3.274,0,0,1,470.27,421.2Z" fill="#fff"/><path d="M53.274,351.569l-.785,3.933c-.219.466-.4.683-.539.655-.121-.024-.193-.291-.216-.8l4.183-20.967a29.281,29.281,0,0,1,5.7-12.912q4.145-5.125,9.336-4.089a7.68,7.68,0,0,1,4.876,3.252,16.429,16.429,0,0,1,2.534,7.278,50.518,50.518,0,0,1,.147,8.39,58.843,58.843,0,0,1,3.257-8.159,16.375,16.375,0,0,1,4.241-5.381,6.07,6.07,0,0,1,5-1.032l11.035,2.2a1.129,1.129,0,0,0,1.162-.323,2.888,2.888,0,0,0,.581-1.34,4.14,4.14,0,0,0-.276-2.55q-.86-1.972-3.9-3.067a.933.933,0,0,1-.652-.511,1.239,1.239,0,0,1-.054-.669,1.062,1.062,0,0,1,.344-.625,1.074,1.074,0,0,1,.971-.152q3.35.666,4.464,4.588a19.845,19.845,0,0,1,.042,9.3,18.624,18.624,0,0,1-2.562,7.024q-1.608,2.235-3.659,1.827l-15.957-3.185a2.8,2.8,0,0,0-3.194,1.7,29.652,29.652,0,0,0-1.635,6.139l22.174,4.425.652-3.267a2.439,2.439,0,0,1,.282-.81q.176-.277.322-.248c.1.019.164.137.2.351a2.423,2.423,0,0,1-.051.857l-4.191,21a1.926,1.926,0,0,1-.234.646c-.1.164-.212.235-.328.211s-.19-.13-.222-.321a1.9,1.9,0,0,1,.031-.688l.784-3.933Zm2.784-13.8,20.875,4.166.647-3.242a8.688,8.688,0,0,0,.029-3.914,2.325,2.325,0,0,0-1.821-1.877L60.13,329.783a1.93,1.93,0,0,0-2.082.685,11.357,11.357,0,0,0-1.344,4.065Z" fill="#fff"/><path d="M93.3,270.47l10.692,3.815q9.243,3.3,11.192,11.286a21.184,21.184,0,0,1-1.043,12.26,24.6,24.6,0,0,1-4.472,7.86,14.167,14.167,0,0,1-6.494,4.467,17.449,17.449,0,0,1-11.484-.128l-12.516-4.467q-8.746-3.123-10.671-11.1a21.088,21.088,0,0,1,1.027-12.12,26.5,26.5,0,0,1,2.756-5.659,18.241,18.241,0,0,1,3.625-4.119,15.51,15.51,0,0,1,4.691-2.621,13.789,13.789,0,0,1,5.159-.865A26.052,26.052,0,0,1,93.3,270.47Zm14.512,30.082a3.856,3.856,0,0,0,3.822-.368,5.5,5.5,0,0,0,1.731-2.559,6.232,6.232,0,0,0,.353-3.049,2.163,2.163,0,0,0-1.433-1.884L75.14,279.436a2.972,2.972,0,0,0-3.062.711,5.507,5.507,0,0,0-1.65,2.517,5.286,5.286,0,0,0-.276,2.788,2.931,2.931,0,0,0,1.994,2.372Z" fill="#fff"/><path d="M120.946,275.994,81.272,255.341,79.2,259.322c-.359.376-.592.535-.7.478-.09-.048-.085-.325.018-.832l9.513-18.275q.535-.562.672-.491c.11.056.112.34.009.847l-1,1.931,18.664,9.715,4.017-7.719-18.663-9.715-1.319,2.532q-.537.565-.7.479c-.109-.057-.1-.334.018-.834l9.7-18.633q.537-.564.673-.493c.108.057.112.34.01.848l-1.884,3.618L137.9,243.431l1.884-3.618a1.663,1.663,0,0,1,.374-.495q.216-.194.374-.112c.1.054.145.179.123.373a1.7,1.7,0,0,1-.192.591l-9.415,18.086a1.432,1.432,0,0,1-.359.467.316.316,0,0,1-.358.081c-.106-.054-.151-.169-.137-.345a1.494,1.494,0,0,1,.18-.572l1.028-1.973-20.356-10.6-4.018,7.719,20.356,10.6,1.224-2.351a1.431,1.431,0,0,1,.358-.465.285.285,0,0,1,.5.259,1.4,1.4,0,0,1-.174.558l-9.733,18.7q-.528.566-.685.484c-.106-.055-.1-.334,0-.841Z" fill="#fff"/><path d="M107.327,208.845l-2.312,3.362a1.175,1.175,0,0,1-.4.386.31.31,0,0,1-.33.021.326.326,0,0,1-.125-.334,1.149,1.149,0,0,1,.219-.509L116.9,193.563a1.4,1.4,0,0,1,.416-.415c.149-.09.266-.106.35-.048a.33.33,0,0,1,.107.361,1.431,1.431,0,0,1-.238.539l-2.312,3.36L152.08,222.7l2.31-3.361c.371-.295.605-.41.7-.342.114.078.091.338-.068.778L142.2,238.428q-.6.5-.741.4c-.1-.067-.063-.344.106-.833l2.62-3.81Z" fill="#fff"/><path d="M131.731,176.008l-.939,1.076a7.009,7.009,0,0,0-1.374,2.229,7.632,7.632,0,0,0,.051,4.286,34.735,34.735,0,0,0,3.561,8.789q2.552,4.575,3.548,5.442l.532.464a.424.424,0,0,1,.111.457,1.342,1.342,0,0,1-.3.552,1.2,1.2,0,0,1-.5.38c-.242.091-.416.088-.524-.007l-14.7-12.821,29.005-33.247,14.673,12.8a.4.4,0,0,1,.088.436,1.491,1.491,0,0,1-.342.6,1.319,1.319,0,0,1-.507.371.4.4,0,0,1-.444-.028l-.9-.786q-1.317-1.147-6.184-2.823a33.962,33.962,0,0,0-8.971-1.916,8.059,8.059,0,0,0-3.659.371,5.343,5.343,0,0,0-1.641,1.229l-1.431,1.639,33.682,29.383,3.486-4c.432-.285.691-.389.781-.311s.023.35-.2.815L162.1,210.356a1.2,1.2,0,0,1-.435.341.3.3,0,0,1-.423-.37,1.209,1.209,0,0,1,.28-.479l3.888-4.457Z" fill="#fff"/><path d="M214.791,123.466l6.844,9.056q5.916,7.83,3.164,15.576a21.171,21.171,0,0,1-7.6,9.677,24.617,24.617,0,0,1-8.052,4.117,14.169,14.169,0,0,1-7.88.172,17.448,17.448,0,0,1-9.53-6.408l-8.012-10.6q-5.6-7.41-2.831-15.134a21.051,21.051,0,0,1,7.509-9.57,26.541,26.541,0,0,1,5.407-3.219,18.334,18.334,0,0,1,5.292-1.454,15.5,15.5,0,0,1,5.36.383,13.789,13.789,0,0,1,4.788,2.108A26.1,26.1,0,0,1,214.791,123.466Zm-4.375,33.113a3.859,3.859,0,0,0,3.4,1.789,5.508,5.508,0,0,0,2.85-1.191,6.234,6.234,0,0,0,1.97-2.355,2.166,2.166,0,0,0-.166-2.362L194.69,121a2.968,2.968,0,0,0-2.95-1.085,5.488,5.488,0,0,0-2.759,1.2,5.274,5.274,0,0,0-1.763,2.18,2.935,2.935,0,0,0,.367,3.078Z" fill="#fff"/><path d="M234.88,143.242l-21.886-39.006-3.915,2.195c-.5.119-.787.125-.847.018q-.075-.135.47-.688L226.67,95.68c.5-.118.781-.133.831-.044.06.108-.091.347-.457.716l-1.9,1.065,10.3,18.349,7.588-4.258-10.3-18.35-2.491,1.4c-.5.119-.788.124-.847.018s.1-.337.471-.689l18.32-10.279c.5-.118.783-.134.833-.044.059.107-.093.346-.456.714l-3.559,2L266.9,125.279l3.558-2a1.666,1.666,0,0,1,.585-.209c.19-.029.316.008.374.111s.024.23-.1.379a1.711,1.711,0,0,1-.484.391l-17.782,9.977a1.435,1.435,0,0,1-.556.193.318.318,0,0,1-.345-.128q-.087-.155.075-.364a1.511,1.511,0,0,1,.464-.379l1.94-1.089-11.228-20.013-7.59,4.258,11.231,20.013,2.311-1.3a1.462,1.462,0,0,1,.555-.192c.173-.016.288.025.345.129a.318.318,0,0,1-.07.361,1.424,1.424,0,0,1-.452.372L231.341,146.11c-.5.123-.781.133-.839.029s.1-.336.464-.7Z" fill="#fff"/><path d="M272.636,74.415l7.007-2.666,27.281,37.606,2.86-1.088c.514-.048.794-.017.835.094s-.145.319-.562.625l-19.126,7.277a1.2,1.2,0,0,1-.544.1.3.3,0,0,1-.2-.525,1.209,1.209,0,0,1,.472-.29l3.05-1.161-4.769-7.565-11.671,4.44.442,5.13a4.827,4.827,0,0,0,.233.8,2.249,2.249,0,0,0,1.781,1.512,6.988,6.988,0,0,0,3.207-.316l1.077-.245c.2.013.32.076.363.191a.333.333,0,0,1-.118.358,1.405,1.405,0,0,1-.5.306l-10.865,4.134a1.386,1.386,0,0,1-.578.106.331.331,0,0,1-.326-.189.354.354,0,0,1,.081-.36l.719-.405a6.584,6.584,0,0,0,2.573-1.836,5.917,5.917,0,0,0,.892-4.156Zm2.435,11.35,2.126,24.666,11.169-4.25Z" fill="#fff"/><path d="M305.967,63.045l-4.107.947c-.519-.028-.789-.092-.812-.192q-.042-.18.64-.557l22.059-5.085a1.4,1.4,0,0,1,.588-.025c.169.034.267.1.289.2a.327.327,0,0,1-.166.338,1.389,1.389,0,0,1-.539.236l-4.371,1.007,10.038,43.555,2.793-.644a16.818,16.818,0,0,0,5.076-1.975,10.8,10.8,0,0,0,3.66-4.174,23.291,23.291,0,0,0,2.774-8.768,28.838,28.838,0,0,0,.263-5.7.748.748,0,0,1,.13-.6l.486-.208.53-.027c.187.041.292.112.317.211l3.628,18.168-37.23,8.581a1.443,1.443,0,0,1-.587.03c-.171-.032-.268-.106-.3-.221s.03-.224.171-.328a1.506,1.506,0,0,1,.547-.233l4.164-.959Z" fill="#fff"/><path d="M374.109,51.143l-4.293.107a1.364,1.364,0,0,1-.572-.093c-.16-.069-.239-.154-.242-.256,0-.123.074-.222.23-.3a1.389,1.389,0,0,1,.575-.122l20.152-.5a39.518,39.518,0,0,1,9.186.818,21.786,21.786,0,0,1,5.928,2.241,15.977,15.977,0,0,1,4.185,3.115,7.623,7.623,0,0,1,1.958,5l.081,3.233a7.833,7.833,0,0,1-2.638,6.027,19.614,19.614,0,0,1-7.411,4.189,33.468,33.468,0,0,1-9.919,1.711l-2.447.06.476,19.128,4.078-.1a1.424,1.424,0,0,1,.58.09c.159.065.241.156.245.273s-.074.215-.231.288a1.44,1.44,0,0,1-.575.117l-22.5.56a1.44,1.44,0,0,1-.58-.089c-.16-.065-.24-.156-.243-.274s.071-.214.228-.287a1.387,1.387,0,0,1,.567-.119l4.292-.106Zm14.137-.32.615,24.755,2.515-.063a10.124,10.124,0,0,0,4.2-.857,2.335,2.335,0,0,0,1.579-2.145l-.47-18.828a2.664,2.664,0,0,0-1.623-2.388,6.962,6.962,0,0,0-3.347-.561Z" fill="#fff"/><path d="M415.968,95.208l5.016-44.446-4.458-.5c-.481-.2-.712-.359-.7-.481.009-.1.271-.2.782-.282L437.081,51.8q.718.3.7.451-.023.183-.788.314l-2.162-.244-2.36,20.908,8.647.975L443.48,53.3l-2.837-.321q-.72-.3-.7-.48c.014-.124.275-.217.786-.284L461.6,54.572c.478.2.713.348.7.451-.014.122-.276.227-.788.313l-4.053-.457-5.016,44.446,4.053.457a1.687,1.687,0,0,1,.6.173c.172.087.251.191.238.308s-.115.2-.3.249a1.719,1.719,0,0,1-.622.033L436.15,98.259a1.459,1.459,0,0,1-.565-.168c-.151-.087-.217-.188-.2-.306s.105-.2.274-.251a1.487,1.487,0,0,1,.6-.037l2.212.249,2.574-22.8-8.647-.977-2.574,22.805,2.635.3a1.425,1.425,0,0,1,.563.168c.149.086.217.188.2.3s-.1.2-.266.253a1.448,1.448,0,0,1-.585.039L411.42,95.468q-.717-.289-.7-.466c.014-.117.274-.216.786-.3Z" fill="#fff"/><path d="M500.287,82.616l-2.792,11q-2.413,9.51-10.18,12.206a21.162,21.162,0,0,1-12.3.116,24.616,24.616,0,0,1-8.247-3.71,14.193,14.193,0,0,1-5.06-6.044,17.461,17.461,0,0,1-.954-11.445l3.269-12.882q2.282-9,10.044-11.669a21.056,21.056,0,0,1,12.164-.119,26.438,26.438,0,0,1,5.892,2.209,18.312,18.312,0,0,1,4.443,3.22,15.538,15.538,0,0,1,3.052,4.424,13.812,13.812,0,0,1,1.347,5.055A26.148,26.148,0,0,1,500.287,82.616ZM471.7,99.9a3.856,3.856,0,0,0,.728,3.77,5.5,5.5,0,0,0,2.711,1.481,6.232,6.232,0,0,0,3.068.065,2.165,2.165,0,0,0,1.742-1.606l9.7-38.226a2.975,2.975,0,0,0-1-2.982,5.524,5.524,0,0,0-2.659-1.4,5.283,5.283,0,0,0-2.8-.013,2.934,2.934,0,0,0-2.172,2.21Z" fill="#fff"/><path d="M526.272,74.107l-1.319-.544a7.023,7.023,0,0,0-2.554-.586,7.619,7.619,0,0,0-4.042,1.425,34.647,34.647,0,0,0-7.182,6.193q-3.513,3.883-4.014,5.106l-.269.653a.426.426,0,0,1-.4.252,1.337,1.337,0,0,1-.619-.106,1.193,1.193,0,0,1-.519-.346c-.163-.2-.216-.367-.161-.5l7.425-18.034,40.8,16.8L546,102.427a.407.407,0,0,1-.385.223,1.469,1.469,0,0,1-.681-.131,1.333,1.333,0,0,1-.515-.361.4.4,0,0,1-.116-.429l.455-1.106q.666-1.617.69-6.763a33.93,33.93,0,0,0-1.065-9.11,8.052,8.052,0,0,0-1.525-3.347,5.351,5.351,0,0,0-1.691-1.161l-2.011-.828-17.021,41.33,4.9,2.018c.409.319.591.531.546.641s-.324.133-.837.071L503.49,113.9a1.2,1.2,0,0,1-.463-.3.314.314,0,0,1-.08-.338.309.309,0,0,1,.3-.181,1.189,1.189,0,0,1,.543.111l5.468,2.252Z" fill="#fff"/><path d="M584.508,123.007l-5.755,9.784q-4.976,8.459-13.184,8.875a21.176,21.176,0,0,1-11.847-3.327,24.667,24.667,0,0,1-6.882-5.867,14.18,14.18,0,0,1-3.168-7.218A17.457,17.457,0,0,1,545.954,114l6.739-11.456q4.707-8.006,12.9-8.4a21.062,21.062,0,0,1,11.712,3.285,26.48,26.48,0,0,1,5.041,3.768,18.24,18.24,0,0,1,3.364,4.335,15.452,15.452,0,0,1,1.695,5.1,13.75,13.75,0,0,1-.12,5.23A26.071,26.071,0,0,1,584.508,123.007Zm-32.271,8.6a3.86,3.86,0,0,0-.357,3.824,5.532,5.532,0,0,0,2.189,2.18,6.252,6.252,0,0,0,2.929.919,2.161,2.161,0,0,0,2.119-1.056l19.994-33.992a2.975,2.975,0,0,0-.123-3.142,5.532,5.532,0,0,0-2.162-2.093,5.281,5.281,0,0,0-2.687-.794,2.933,2.933,0,0,0-2.705,1.514Z" fill="#fff"/><path d="M620.679,131.816l5.3.519a1.921,1.921,0,0,1,1.083.381.821.821,0,0,1,.23.258.22.22,0,0,1-.027.254l-11.336,14.448c-.063.081-.177.1-.338.047a1.594,1.594,0,0,1-.512-.284c-.25-.2-.384-.354-.406-.475a5.3,5.3,0,0,1,.687-1.534q5.073-10.212,3.582-15.8a10.315,10.315,0,0,0-3.725-5.385,6.473,6.473,0,0,0-3.115-1.427,3.037,3.037,0,0,0-2.835,1.412l-24.552,31.293a1.742,1.742,0,0,0,0,1.978,7.241,7.241,0,0,0,2.057,2.335,6.42,6.42,0,0,0,2.857,1.423,2.8,2.8,0,0,0,2.767-.992l10.58-13.484-2.782-2.182a1.332,1.332,0,0,1-.386-.445c-.079-.156-.085-.277-.019-.362a.344.344,0,0,1,.375-.091,1.38,1.38,0,0,1,.523.268l15.564,12.212a1.2,1.2,0,0,1,.363.42.329.329,0,0,1-.021.356.308.308,0,0,1-.322.08,1.175,1.175,0,0,1-.494-.25l-2.406-1.889-12.742,16.239a.4.4,0,0,1-.388.164.728.728,0,0,1-.377-.178,1.435,1.435,0,0,1-.346-.387,1.539,1.539,0,0,1-.173-.606l-.375-5.8a24.888,24.888,0,0,1-7.525-.927,18.1,18.1,0,0,1-5.167-2.941q-7.276-5.706-8.114-12.347t4.118-12.957l7.063-9q5.07-6.463,12.2-7.3t13.554,4.2A14.191,14.191,0,0,1,620.679,131.816Z" fill="#fff"/><path d="M639.153,144.468l-2.762-2.908q-.381-.671-.224-.818.133-.127.782.288l14.718,15.506a29.268,29.268,0,0,1,7.265,12.1q1.8,6.342-2.043,9.987a7.672,7.672,0,0,1-5.468,2.108,16.424,16.424,0,0,1-7.406-2.125,50.338,50.338,0,0,1-6.94-4.718,59.025,59.025,0,0,1,4.788,7.366,16.379,16.379,0,0,1,1.952,6.567,6.071,6.071,0,0,1-2.042,4.681l-8.16,7.747a1.133,1.133,0,0,0-.406,1.136,2.884,2.884,0,0,0,.76,1.247,4.125,4.125,0,0,0,2.243,1.245q2.109.435,4.757-1.421a.936.936,0,0,1,.793-.239,1.212,1.212,0,0,1,.577.342,1.061,1.061,0,0,1,.314.642,1.074,1.074,0,0,1-.437.881q-2.475,2.352-6.322,1a19.853,19.853,0,0,1-7.626-5.331,18.61,18.61,0,0,1-4.261-6.14q-.9-2.6.616-4.043l11.8-11.2a2.794,2.794,0,0,0,.452-3.59A29.594,29.594,0,0,0,632.8,169.9l-16.4,15.567,2.292,2.415a2.4,2.4,0,0,1,.5.7c.084.2.09.336.018.405s-.206.054-.4-.038a2.513,2.513,0,0,1-.67-.535l-14.744-15.533a1.942,1.942,0,0,1-.393-.563q-.111-.27.017-.392t.391,0a1.912,1.912,0,0,1,.544.422l2.761,2.909Zm9.666,10.229-15.44,14.655,2.278,2.4a8.626,8.626,0,0,0,3.18,2.279,2.324,2.324,0,0,0,2.584-.406L653,162.631a1.927,1.927,0,0,0,.641-2.095,11.292,11.292,0,0,0-2.546-3.442Z" fill="#fff"/><path d="M684.046,196.31l4.315,6.131-29.7,35.726,1.759,2.5q.261.732.117.833c-.1.069-.346-.062-.746-.39l-11.778-16.735a1.193,1.193,0,0,1-.227-.5.3.3,0,0,1,.459-.324,1.24,1.24,0,0,1,.4.385l1.878,2.669,6.154-6.489L649.489,209.9l-4.862,1.7a4.895,4.895,0,0,0-.718.422,2.254,2.254,0,0,0-1.026,2.1,7,7,0,0,0,1.1,3.029l.5.982c.038.2.007.329-.1.4a.328.328,0,0,1-.374-.027,1.393,1.393,0,0,1-.422-.41l-6.689-9.507a1.372,1.372,0,0,1-.245-.535.323.323,0,0,1,.1-.362.357.357,0,0,1,.368-.011l.571.6a6.6,6.6,0,0,0,2.415,2.042,5.925,5.925,0,0,0,4.248-.165Zm-10.4,5.163-23.377,8.154,6.878,9.773Z" fill="#fff"/><path d="M703.5,226.02l-1.957-3.821a1.362,1.362,0,0,1-.165-.558c-.007-.172.035-.281.127-.327a.331.331,0,0,1,.369.077,1.433,1.433,0,0,1,.359.465l9.186,17.943a39.6,39.6,0,0,1,3.246,8.634,21.926,21.926,0,0,1,.55,6.314,16.03,16.03,0,0,1-.994,5.122,7.633,7.633,0,0,1-3.659,3.932l-2.879,1.474a7.827,7.827,0,0,1-6.575.235,19.6,19.6,0,0,1-6.987-4.861,33.485,33.485,0,0,1-5.841-8.2l-1.116-2.179-17.032,8.721,1.86,3.631a1.444,1.444,0,0,1,.171.561c.01.173-.037.286-.142.34a.321.321,0,0,1-.358-.084,1.423,1.423,0,0,1-.355-.465l-10.257-20.034a1.447,1.447,0,0,1-.172-.561c-.01-.172.038-.285.143-.338a.317.317,0,0,1,.357.081,1.382,1.382,0,0,1,.351.46l1.958,3.822Zm6.417,12.6-22.041,11.286,1.147,2.239a10.1,10.1,0,0,0,2.59,3.409,2.33,2.33,0,0,0,2.617.492l16.764-8.584a2.664,2.664,0,0,0,1.448-2.5,6.953,6.953,0,0,0-.944-3.259Z" fill="#fff"/><path d="M681.916,282.815l42.265-14.64-1.47-4.24q-.041-.779.133-.838.145-.049.594.584l6.743,19.469q.04.775-.1.825-.177.062-.623-.575l-.712-2.056-19.882,6.887,2.846,8.223,19.884-6.888-.935-2.7c-.029-.519.017-.8.133-.838s.314.154.593.586l6.876,19.849q.042.777-.1.827c-.115.041-.324-.151-.622-.575l-1.335-3.854L693.932,317.5l1.334,3.855a1.707,1.707,0,0,1,.1.612c-.007.194-.065.31-.176.349s-.231-.017-.355-.166a1.756,1.756,0,0,1-.3-.546l-6.672-19.267a1.433,1.433,0,0,1-.093-.582c.014-.174.076-.278.188-.317s.225.008.345.138a1.506,1.506,0,0,1,.291.524l.729,2.1L711.01,296.7l-2.848-8.223-21.685,7.512.868,2.5a1.469,1.469,0,0,1,.092.58c-.014.172-.076.278-.189.316s-.225-.006-.342-.133a1.406,1.406,0,0,1-.286-.509l-6.9-19.918c-.033-.515.007-.792.118-.831s.316.154.609.581Z" fill="#fff"/><path d="M720.09,333.085,740.243,318l-.494-2.673a1.227,1.227,0,0,1,0-.554.314.314,0,0,1,.241-.252.307.307,0,0,1,.328.147,1.41,1.41,0,0,1,.185.519l4,21.732c-.046.515-.117.782-.214.8-.135.026-.316-.2-.543-.66l-.984-5.349-18.738,14.181,17.51,4.848a3.71,3.71,0,0,0,1.76.159,2.37,2.37,0,0,0,1.693-1.141,4.492,4.492,0,0,0,.535-2.38l-.287-2.228q.019-.418.273-.465c.148-.026.33.195.548.669l2.007,10.9a5.521,5.521,0,0,1,.123,1.014l-.114.229q-.213.039-.6-.719a6.776,6.776,0,0,0-4.311-3.976l-20.525-5.88-21.812,4.016.972,5.281a1.454,1.454,0,0,1,0,.588c-.04.168-.116.263-.232.284s-.224-.04-.322-.183a1.459,1.459,0,0,1-.2-.55L696.5,331.69a1.215,1.215,0,0,1,0-.554.3.3,0,0,1,.554-.1,1.213,1.213,0,0,1,.2.515l1.021,5.55Z" fill="#fff"/><path d="M728.3,384.919a14.585,14.585,0,1,1-14.555,14.443A14.394,14.394,0,0,1,728.3,384.919Z" fill="#b21f24"/><path d="M84.619,400a14.516,14.516,0,0,1-14.468,14.58,14.585,14.585,0,1,1,.059-29.168A14.391,14.391,0,0,1,84.619,400Z" fill="#b21f24"/><path d="M746.684,448.431l.785-3.934c.219-.466.4-.683.539-.654q.181.034.216.8l-4.184,20.967a29.263,29.263,0,0,1-5.7,12.912q-4.144,5.126-9.337,4.089a7.678,7.678,0,0,1-4.876-3.252,16.437,16.437,0,0,1-2.533-7.277,50.423,50.423,0,0,1-.147-8.391,58.871,58.871,0,0,1-3.257,8.16,16.359,16.359,0,0,1-4.241,5.38,6.066,6.066,0,0,1-5,1.033l-11.035-2.2a1.131,1.131,0,0,0-1.163.324,2.889,2.889,0,0,0-.58,1.34,4.129,4.129,0,0,0,.276,2.549q.859,1.974,3.9,3.068a.933.933,0,0,1,.651.51,1.241,1.241,0,0,1,.055.669.967.967,0,0,1-1.315.778q-3.349-.668-4.464-4.588a19.849,19.849,0,0,1-.042-9.3,18.607,18.607,0,0,1,2.562-7.023q1.608-2.236,3.658-1.827l15.958,3.184a2.8,2.8,0,0,0,3.194-1.7,29.736,29.736,0,0,0,1.635-6.14l-22.174-4.424-.653,3.266a2.448,2.448,0,0,1-.281.811q-.175.276-.322.248c-.1-.02-.164-.137-.2-.352a2.416,2.416,0,0,1,.051-.856l4.191-21a1.924,1.924,0,0,1,.234-.647c.1-.164.212-.234.327-.211s.191.13.223.322a1.913,1.913,0,0,1-.031.687l-.784,3.934Zm-2.784,13.8-20.875-4.166-.648,3.242a8.7,8.7,0,0,0-.028,3.914,2.327,2.327,0,0,0,1.821,1.877l15.658,3.124a1.931,1.931,0,0,0,2.082-.686,11.35,11.35,0,0,0,1.344-4.064Z" fill="#fff"/><path d="M706.66,529.529l-10.692-3.814q-9.243-3.3-11.192-11.286a21.174,21.174,0,0,1,1.043-12.26,24.615,24.615,0,0,1,4.471-7.86,14.167,14.167,0,0,1,6.5-4.467,17.449,17.449,0,0,1,11.484.128l12.516,4.467q8.747,3.123,10.67,11.1a21.086,21.086,0,0,1-1.026,12.12,26.571,26.571,0,0,1-2.756,5.659,18.268,18.268,0,0,1-3.625,4.12,15.522,15.522,0,0,1-4.691,2.621,13.829,13.829,0,0,1-5.159.865A26.085,26.085,0,0,1,706.66,529.529Zm-14.512-30.082a3.856,3.856,0,0,0-3.822.368,5.507,5.507,0,0,0-1.731,2.559,6.236,6.236,0,0,0-.353,3.05,2.163,2.163,0,0,0,1.433,1.884l37.143,13.255a2.971,2.971,0,0,0,3.062-.71,5.526,5.526,0,0,0,1.65-2.517,5.286,5.286,0,0,0,.276-2.788,2.928,2.928,0,0,0-1.994-2.372Z" fill="#fff"/><path d="M679.011,524.007l39.676,20.652,2.07-3.98c.359-.377.592-.536.7-.48.092.048.086.325-.016.832l-9.514,18.277q-.535.561-.672.49-.163-.086-.01-.848l1-1.929-18.664-9.715-4.017,7.717,18.663,9.716,1.319-2.533c.359-.376.59-.535.7-.477s.105.333-.017.833l-9.7,18.632q-.535.566-.672.494c-.11-.057-.113-.339-.01-.848l1.884-3.617L662.062,556.57l-1.884,3.618a1.7,1.7,0,0,1-.375.5c-.144.128-.269.166-.374.111s-.145-.179-.123-.372a1.718,1.718,0,0,1,.191-.592l9.416-18.087a1.465,1.465,0,0,1,.359-.467.319.319,0,0,1,.358-.081c.106.055.151.17.138.346a1.5,1.5,0,0,1-.182.572l-1.027,1.974,20.355,10.6,4.019-7.719-20.356-10.6-1.223,2.352a1.484,1.484,0,0,1-.359.465.285.285,0,0,1-.5-.26,1.425,1.425,0,0,1,.173-.559l9.734-18.7q.528-.565.685-.483t0,.84Z" fill="#fff"/><path d="M692.631,591.154l2.312-3.361a1.179,1.179,0,0,1,.4-.387.309.309,0,0,1,.33-.02.325.325,0,0,1,.125.334,1.166,1.166,0,0,1-.219.509L683.06,606.437a1.423,1.423,0,0,1-.416.415c-.149.089-.267.105-.351.047a.331.331,0,0,1-.106-.361,1.427,1.427,0,0,1,.238-.538l2.312-3.36L647.877,577.3l-2.309,3.36q-.556.442-.7.343c-.115-.078-.091-.338.068-.778l12.824-18.656q.6-.5.74-.4c.1.066.064.344-.105.833l-2.62,3.809Z" fill="#fff"/><path d="M668.227,623.991l.939-1.076a6.983,6.983,0,0,0,1.373-2.228,7.625,7.625,0,0,0-.05-4.287,34.749,34.749,0,0,0-3.561-8.789q-2.552-4.573-3.548-5.441l-.532-.465a.423.423,0,0,1-.111-.457,1.348,1.348,0,0,1,.3-.552,1.2,1.2,0,0,1,.5-.38c.242-.09.416-.087.524.007l14.7,12.822-29,33.247-14.672-12.8a.4.4,0,0,1-.088-.437,1.487,1.487,0,0,1,.342-.6,1.324,1.324,0,0,1,.506-.371.406.406,0,0,1,.445.027l.9.786q1.317,1.149,6.184,2.823a33.932,33.932,0,0,0,8.97,1.916,8.062,8.062,0,0,0,3.66-.371,5.341,5.341,0,0,0,1.641-1.228l1.431-1.64L625.384,605.11l-3.486,4c-.432.286-.692.389-.781.312s-.023-.351.2-.815l16.538-18.958a1.191,1.191,0,0,1,.434-.341.3.3,0,0,1,.424.37,1.226,1.226,0,0,1-.28.478l-3.888,4.457Z" fill="#fff"/><path d="M585.166,676.534l-6.843-9.055q-5.917-7.83-3.164-15.577a21.157,21.157,0,0,1,7.6-9.676,24.6,24.6,0,0,1,8.052-4.119,14.168,14.168,0,0,1,7.88-.171,17.444,17.444,0,0,1,9.53,6.409l8.012,10.6q5.6,7.411,2.831,15.135a21.04,21.04,0,0,1-7.51,9.569,26.417,26.417,0,0,1-5.406,3.219,18.314,18.314,0,0,1-5.292,1.455,15.45,15.45,0,0,1-5.36-.384,13.8,13.8,0,0,1-4.789-2.107A26.146,26.146,0,0,1,585.166,676.534Zm4.375-33.112a3.854,3.854,0,0,0-3.4-1.789,5.5,5.5,0,0,0-2.851,1.189,6.25,6.25,0,0,0-1.969,2.356,2.164,2.164,0,0,0,.166,2.362L605.268,679a2.97,2.97,0,0,0,2.95,1.086,5.512,5.512,0,0,0,2.759-1.2,5.28,5.28,0,0,0,1.763-2.18,2.932,2.932,0,0,0-.368-3.077Z" fill="#fff"/><path d="M565.079,656.758l21.886,39.006,3.914-2.2c.5-.12.787-.125.848-.017.05.09-.106.318-.47.687l-17.969,10.081c-.5.119-.78.133-.831.044q-.088-.161.457-.716l1.9-1.064-10.3-18.35-7.589,4.259,10.295,18.35,2.491-1.4c.5-.119.787-.124.848-.016s-.1.336-.472.687l-18.32,10.28c-.5.118-.782.133-.832.043-.061-.107.093-.345.455-.713l3.559-2-21.887-39.007-3.558,2a1.707,1.707,0,0,1-.585.209c-.19.028-.316-.008-.374-.112s-.024-.229.1-.378a1.705,1.705,0,0,1,.484-.391l17.782-9.978a1.462,1.462,0,0,1,.557-.193.317.317,0,0,1,.345.129.321.321,0,0,1-.075.363,1.483,1.483,0,0,1-.464.379l-1.941,1.09,11.229,20.013,7.59-4.258-11.231-20.014-2.311,1.3a1.45,1.45,0,0,1-.555.192c-.173.018-.288-.025-.345-.128a.32.32,0,0,1,.07-.362,1.437,1.437,0,0,1,.452-.372l18.383-10.314q.751-.184.838-.03c.057.1-.1.336-.463.7Z" fill="#fff"/><path d="M527.324,725.585l-7.007,2.667-27.282-37.607-2.86,1.088c-.514.047-.794.017-.835-.093s.145-.32.562-.625l19.126-7.279a1.186,1.186,0,0,1,.544-.1.3.3,0,0,1,.2.525,1.216,1.216,0,0,1-.472.29l-3.05,1.161,4.769,7.566,11.67-4.442-.442-5.129a4.718,4.718,0,0,0-.232-.8,2.247,2.247,0,0,0-1.781-1.512,7,7,0,0,0-3.207.314l-1.077.245c-.2-.012-.32-.075-.364-.19a.332.332,0,0,1,.118-.357,1.425,1.425,0,0,1,.5-.307l10.866-4.135a1.4,1.4,0,0,1,.578-.1.328.328,0,0,1,.326.188.354.354,0,0,1-.081.36l-.719.406a6.573,6.573,0,0,0-2.573,1.835,5.917,5.917,0,0,0-.893,4.157Zm-2.435-11.351-2.128-24.666-11.168,4.251Z" fill="#fff"/><path d="M493.992,736.955l4.107-.947c.519.028.789.092.812.192q.042.18-.64.558l-22.06,5.084a1.419,1.419,0,0,1-.588.025c-.169-.035-.266-.1-.289-.2a.331.331,0,0,1,.166-.338,1.4,1.4,0,0,1,.539-.235l4.372-1.008L470.372,696.53l-2.793.644a16.881,16.881,0,0,0-5.076,1.974,10.822,10.822,0,0,0-3.659,4.175,23.3,23.3,0,0,0-2.774,8.768,28.83,28.83,0,0,0-.263,5.695.758.758,0,0,1-.13.6l-.486.207-.53.027c-.187-.041-.292-.111-.317-.212l-3.628-18.167,37.23-8.582a1.458,1.458,0,0,1,.587-.029c.171.032.268.105.295.221s-.03.224-.171.328a1.5,1.5,0,0,1-.547.232l-4.164.96Z" fill="#fff"/><path d="M425.85,748.856l4.293-.106a1.347,1.347,0,0,1,.572.094c.159.067.239.153.241.255,0,.123-.073.222-.229.3a1.377,1.377,0,0,1-.575.122l-20.153.5a39.509,39.509,0,0,1-9.185-.82,21.847,21.847,0,0,1-5.928-2.239,15.982,15.982,0,0,1-4.185-3.115,7.618,7.618,0,0,1-1.958-5l-.081-3.234a7.831,7.831,0,0,1,2.638-6.027,19.609,19.609,0,0,1,7.41-4.189,33.474,33.474,0,0,1,9.92-1.71l2.447-.061L410.6,704.5l-4.078.1a1.459,1.459,0,0,1-.58-.09c-.159-.066-.241-.157-.245-.275s.074-.213.231-.287a1.435,1.435,0,0,1,.574-.117l22.5-.56a1.452,1.452,0,0,1,.58.088c.161.066.241.158.244.276s-.072.214-.228.287a1.426,1.426,0,0,1-.567.117l-4.292.108Zm-14.137.322-.615-24.756-2.517.062a10.137,10.137,0,0,0-4.194.858,2.334,2.334,0,0,0-1.579,2.144l.47,18.828A2.664,2.664,0,0,0,404.9,748.7a6.946,6.946,0,0,0,3.346.562Z" fill="#fff"/><path d="M383.989,704.793l-5.016,44.445,4.458.5c.481.2.712.359.7.481-.009.1-.271.2-.782.283L362.875,748.2q-.717-.3-.7-.45.023-.185.788-.313l2.161.243,2.361-20.908-8.647-.976-2.36,20.908,2.837.321q.72.3.7.481c-.015.122-.275.217-.786.282l-20.874-2.355q-.719-.3-.7-.451.019-.184.788-.313l4.053.457,5.016-44.445-4.054-.458a1.708,1.708,0,0,1-.6-.172c-.172-.089-.251-.192-.239-.31s.116-.2.3-.248a1.718,1.718,0,0,1,.622-.034l20.262,2.287a1.448,1.448,0,0,1,.564.168c.152.086.218.188.206.306s-.105.2-.274.252a1.51,1.51,0,0,1-.6.036l-2.211-.249-2.574,22.8,8.647.976,2.574-22.8-2.635-.3a1.471,1.471,0,0,1-.563-.168q-.224-.13-.2-.306c.012-.117.1-.2.266-.253a1.431,1.431,0,0,1,.585-.038l20.947,2.363c.478.194.709.349.7.467s-.275.216-.786.3Z" fill="#fff"/><path d="M299.672,717.386l2.792-11q2.413-9.513,10.18-12.207a21.179,21.179,0,0,1,12.3-.116,24.617,24.617,0,0,1,8.247,3.711,14.178,14.178,0,0,1,5.058,6.043,17.444,17.444,0,0,1,.955,11.446l-3.268,12.881q-2.283,9-10.044,11.67a21.073,21.073,0,0,1-12.164.119,26.586,26.586,0,0,1-5.892-2.209A18.322,18.322,0,0,1,303.4,734.5a15.509,15.509,0,0,1-3.052-4.425A13.8,13.8,0,0,1,299,725.021,26.164,26.164,0,0,1,299.672,717.386ZM328.254,700.1a3.856,3.856,0,0,0-.727-3.771,5.507,5.507,0,0,0-2.711-1.481,6.236,6.236,0,0,0-3.069-.065,2.165,2.165,0,0,0-1.741,1.606l-9.7,38.226a2.972,2.972,0,0,0,1,2.982,5.525,5.525,0,0,0,2.659,1.4,5.3,5.3,0,0,0,2.8.013,2.935,2.935,0,0,0,2.172-2.21Z" fill="#fff"/><path d="M273.686,725.894l1.319.543a7.044,7.044,0,0,0,2.554.586A7.634,7.634,0,0,0,281.6,725.6a34.714,34.714,0,0,0,7.182-6.194q3.512-3.885,4.014-5.106l.269-.653a.42.42,0,0,1,.4-.251,1.334,1.334,0,0,1,.618.1,1.216,1.216,0,0,1,.52.348c.163.2.216.366.161.5l-7.426,18.034-40.8-16.8,7.416-18.006a.4.4,0,0,1,.385-.222,1.482,1.482,0,0,1,.681.13,1.323,1.323,0,0,1,.515.361.405.405,0,0,1,.116.429l-.455,1.106q-.667,1.617-.69,6.764a33.9,33.9,0,0,0,1.065,9.11A8.072,8.072,0,0,0,257.1,718.6a5.331,5.331,0,0,0,1.691,1.16l2.011.828,17.021-41.33-4.9-2.019q-.612-.476-.545-.64c.044-.109.324-.133.836-.072l23.262,9.58a1.21,1.21,0,0,1,.463.3.3.3,0,0,1-.215.52,1.233,1.233,0,0,1-.543-.112l-5.469-2.252Z" fill="#fff"/><path d="M215.451,676.993l5.754-9.784q4.977-8.458,13.185-8.875a21.184,21.184,0,0,1,11.847,3.327,24.651,24.651,0,0,1,6.882,5.867,14.183,14.183,0,0,1,3.168,7.218A17.453,17.453,0,0,1,254,686l-6.738,11.455q-4.708,8.008-12.9,8.4a21.054,21.054,0,0,1-11.712-3.285,26.562,26.562,0,0,1-5.041-3.767,18.274,18.274,0,0,1-3.364-4.335,15.473,15.473,0,0,1-1.695-5.1,13.766,13.766,0,0,1,.119-5.229A26.1,26.1,0,0,1,215.451,676.993Zm32.271-8.605a3.86,3.86,0,0,0,.357-3.824,5.524,5.524,0,0,0-2.189-2.179,6.246,6.246,0,0,0-2.93-.92,2.161,2.161,0,0,0-2.118,1.056l-19.994,33.993a2.973,2.973,0,0,0,.123,3.141,5.523,5.523,0,0,0,2.162,2.092,5.283,5.283,0,0,0,2.687.8,2.935,2.935,0,0,0,2.705-1.514Z" fill="#fff"/><path d="M179.28,668.184l-5.3-.519a1.914,1.914,0,0,1-1.083-.382.809.809,0,0,1-.23-.258.217.217,0,0,1,.027-.253l11.336-14.449c.063-.081.176-.1.337-.047a1.607,1.607,0,0,1,.513.286c.25.195.384.353.405.473a5.241,5.241,0,0,1-.686,1.535q-5.073,10.212-3.582,15.8a10.313,10.313,0,0,0,3.725,5.385,6.482,6.482,0,0,0,3.115,1.427,3.037,3.037,0,0,0,2.835-1.412l24.551-31.293a1.738,1.738,0,0,0,0-1.977,7.268,7.268,0,0,0-2.057-2.337,6.45,6.45,0,0,0-2.858-1.423,2.8,2.8,0,0,0-2.766.992l-10.58,13.485,2.782,2.181a1.334,1.334,0,0,1,.386.446c.079.157.085.277.018.361a.342.342,0,0,1-.375.093,1.362,1.362,0,0,1-.522-.27l-15.565-12.211a1.2,1.2,0,0,1-.362-.421.327.327,0,0,1,.021-.356.312.312,0,0,1,.322-.079,1.172,1.172,0,0,1,.494.251l2.406,1.889,12.741-16.241a.405.405,0,0,1,.389-.164.731.731,0,0,1,.377.179,1.406,1.406,0,0,1,.346.387,1.533,1.533,0,0,1,.173.605l.375,5.8a24.888,24.888,0,0,1,7.525.927,18.11,18.11,0,0,1,5.167,2.941q7.276,5.708,8.113,12.348t-4.117,12.957l-7.063,9q-5.07,6.461-12.2,7.3t-13.554-4.2A14.191,14.191,0,0,1,179.28,668.184Z" fill="#fff"/><path d="M160.8,655.531l2.762,2.909c.254.448.328.719.223.818q-.132.127-.781-.287l-14.719-15.507a29.262,29.262,0,0,1-7.264-12.1q-1.8-6.34,2.043-9.987a7.67,7.67,0,0,1,5.468-2.107,16.428,16.428,0,0,1,7.406,2.125,50.4,50.4,0,0,1,6.94,4.717,58.915,58.915,0,0,1-4.788-7.365,16.364,16.364,0,0,1-1.952-6.566,6.074,6.074,0,0,1,2.042-4.683l8.16-7.747a1.126,1.126,0,0,0,.405-1.135,2.871,2.871,0,0,0-.759-1.247,4.135,4.135,0,0,0-2.244-1.246q-2.107-.433-4.756,1.423a.934.934,0,0,1-.793.237,1.212,1.212,0,0,1-.578-.342,1.065,1.065,0,0,1-.313-.64,1.078,1.078,0,0,1,.437-.883q2.474-2.349,6.322-1a19.859,19.859,0,0,1,7.627,5.33,18.6,18.6,0,0,1,4.259,6.142q.9,2.6-.616,4.043l-11.8,11.2a2.8,2.8,0,0,0-.453,3.591,29.773,29.773,0,0,0,4.076,4.874l16.4-15.567-2.292-2.416a2.4,2.4,0,0,1-.5-.7c-.084-.2-.09-.338-.018-.4s.206-.056.405.038a2.454,2.454,0,0,1,.67.535l14.744,15.532a1.926,1.926,0,0,1,.392.564q.113.268-.016.39c-.086.082-.216.08-.391,0a1.863,1.863,0,0,1-.544-.422l-2.761-2.908ZM151.138,645.3l15.44-14.657-2.278-2.4a8.626,8.626,0,0,0-3.18-2.279,2.326,2.326,0,0,0-2.584.406l-11.58,10.991a1.93,1.93,0,0,0-.64,2.1,11.292,11.292,0,0,0,2.546,3.442Z" fill="#fff"/><path d="M115.913,603.69l-4.316-6.13,29.7-35.728-1.759-2.5q-.261-.731-.117-.833c.1-.068.346.063.745.39l11.779,16.734a1.207,1.207,0,0,1,.227.5.3.3,0,0,1-.459.323,1.2,1.2,0,0,1-.4-.385l-1.878-2.668-6.154,6.49L150.47,590.1l4.861-1.7a4.86,4.86,0,0,0,.719-.423,2.252,2.252,0,0,0,1.026-2.1,6.986,6.986,0,0,0-1.1-3.029l-.5-.984c-.038-.195-.007-.329.094-.4a.326.326,0,0,1,.375.026,1.393,1.393,0,0,1,.422.41l6.689,9.507a1.375,1.375,0,0,1,.245.534.33.33,0,0,1-.1.364.357.357,0,0,1-.369.009l-.57-.6a6.586,6.586,0,0,0-2.415-2.042,5.919,5.919,0,0,0-4.248.164Zm10.4-5.164,23.376-8.154-6.877-9.772Z" fill="#fff"/><path d="M96.462,573.979l1.957,3.822a1.347,1.347,0,0,1,.165.557c.008.172-.034.282-.127.328a.331.331,0,0,1-.368-.078,1.394,1.394,0,0,1-.359-.464L88.543,560.2a39.555,39.555,0,0,1-3.244-8.634,21.885,21.885,0,0,1-.552-6.313,16.033,16.033,0,0,1,1-5.122A7.635,7.635,0,0,1,89.4,536.2l2.879-1.473a7.827,7.827,0,0,1,6.575-.236,19.605,19.605,0,0,1,6.987,4.862,33.466,33.466,0,0,1,5.841,8.2l1.116,2.179,17.031-8.721-1.859-3.631a1.449,1.449,0,0,1-.171-.562.317.317,0,0,1,.142-.339.32.32,0,0,1,.358.083,1.434,1.434,0,0,1,.355.465l10.257,20.035a1.423,1.423,0,0,1,.171.56.286.286,0,0,1-.5.258,1.414,1.414,0,0,1-.351-.461l-1.957-3.821Zm-6.417-12.6,22.042-11.286-1.147-2.239a10.132,10.132,0,0,0-2.59-3.41,2.332,2.332,0,0,0-2.617-.492l-16.764,8.583a2.667,2.667,0,0,0-1.448,2.5,6.956,6.956,0,0,0,.944,3.26Z" fill="#fff"/><path d="M118.042,517.185,75.778,531.824l1.469,4.24c.028.52-.015.8-.132.838-.1.034-.3-.162-.594-.584L69.778,516.85c-.028-.517.008-.792.1-.826.117-.041.325.152.623.576l.712,2.055L91.1,511.769l-2.847-8.222-19.883,6.887.935,2.7c.028.518-.017.8-.134.838s-.313-.155-.592-.586L61.7,493.533c-.027-.517.006-.794.1-.827q.172-.062.622.575l1.335,3.855,42.264-14.64-1.334-3.854a1.687,1.687,0,0,1-.1-.613c.007-.193.065-.309.176-.348s.23.016.355.166a1.743,1.743,0,0,1,.3.546l6.673,19.266a1.471,1.471,0,0,1,.093.582c-.014.174-.076.279-.189.318s-.224-.008-.344-.138a1.52,1.52,0,0,1-.291-.525l-.729-2.1-21.684,7.511,2.848,8.222,21.685-7.511-.868-2.5a1.434,1.434,0,0,1-.091-.58c.013-.172.075-.279.187-.317s.226.006.343.133a1.425,1.425,0,0,1,.286.51l6.9,19.918c.033.514-.007.792-.118.831s-.316-.154-.609-.581Z" fill="#fff"/><path d="M79.869,466.914,59.716,482l.493,2.674a1.227,1.227,0,0,1,0,.554.316.316,0,0,1-.24.252.306.306,0,0,1-.328-.148,1.411,1.411,0,0,1-.185-.518l-4-21.733c.045-.515.117-.781.213-.8.136-.025.317.2.543.66l.985,5.349,18.738-14.181L58.42,449.26a3.705,3.705,0,0,0-1.759-.159,2.369,2.369,0,0,0-1.693,1.14,4.482,4.482,0,0,0-.535,2.38l.287,2.229c-.014.279-.1.433-.273.464q-.222.041-.548-.668l-2.007-10.9a5.513,5.513,0,0,1-.123-1.013l.114-.229q.213-.039.6.719a6.772,6.772,0,0,0,4.311,3.975l20.525,5.88,21.812-4.014-.972-5.283a1.454,1.454,0,0,1,0-.588c.04-.168.116-.262.232-.284s.224.04.321.184a1.436,1.436,0,0,1,.2.55l4.542,24.671a1.2,1.2,0,0,1,0,.553.3.3,0,0,1-.552.1,1.212,1.212,0,0,1-.2-.516l-1.021-5.55Z" fill="#fff"/></svg>